<?xml version="1.0" encoding="UTF-8" standalone="no"?>
<svg
   data-name="Layer 1"
   width="888"
   height="442.24956"
   viewBox="0 0 888 442.24956"
   version="1.1"
   id="svg486"
   sodipodi:docname="nextjs-dark.svg"
   inkscape:version="1.1.1 (26b7af14f2, 2022-01-19)"
   xmlns:inkscape="http://www.inkscape.org/namespaces/inkscape"
   xmlns:sodipodi="http://sodipodi.sourceforge.net/DTD/sodipodi-0.dtd"
   xmlns="http://www.w3.org/2000/svg"
   xmlns:svg="http://www.w3.org/2000/svg"
   xmlns:rdf="http://www.w3.org/1999/02/22-rdf-syntax-ns#"
   xmlns:cc="http://creativecommons.org/ns#"
   xmlns:dc="http://purl.org/dc/elements/1.1/">
  <defs
     id="defs490" />
  <sodipodi:namedview
     id="namedview488"
     pagecolor="#ffffff"
     bordercolor="#999999"
     borderopacity="1"
     inkscape:pageshadow="0"
     inkscape:pageopacity="0"
     inkscape:pagecheckerboard="0"
     showgrid="false"
     inkscape:zoom="1.3524775"
     inkscape:cx="444"
     inkscape:cy="221.44546"
     inkscape:window-width="1920"
     inkscape:window-height="1052"
     inkscape:window-x="1920"
     inkscape:window-y="28"
     inkscape:window-maximized="1"
     inkscape:current-layer="svg486" />
  <title
     id="title2">next_js</title>
  <circle
     cx="190.00923"
     cy="79.90411"
     r="5.54965"
     fill="#e6e6e6"
     id="circle4"
     style="fill:#000000;fill-opacity:1" />
  <circle
     cx="218.10149"
     cy="79.90411"
     r="5.54965"
     fill="#e6e6e6"
     id="circle6"
     style="fill:#000000;fill-opacity:1" />
  <circle
     cx="246.19376"
     cy="79.90411"
     r="5.54965"
     fill="#e6e6e6"
     id="circle8"
     style="fill:#000000;fill-opacity:1" />
  <circle
     cx="274.28602"
     cy="79.90411"
     r="5.54965"
     fill="#e6e6e6"
     id="circle10"
     style="fill:#000000;fill-opacity:1" />
  <circle
     cx="302.37828"
     cy="79.90411"
     r="5.54965"
     fill="#e6e6e6"
     id="circle12"
     style="fill:#000000;fill-opacity:1" />
  <circle
     cx="330.47054"
     cy="79.90411"
     r="5.54965"
     fill="#e6e6e6"
     id="circle14"
     style="fill:#000000;fill-opacity:1" />
  <circle
     cx="358.5628"
     cy="79.90411"
     r="5.54965"
     fill="#e6e6e6"
     id="circle16"
     style="fill:#000000;fill-opacity:1" />
  <circle
     cx="386.65506"
     cy="79.90411"
     r="5.54965"
     fill="#e6e6e6"
     id="circle18"
     style="fill:#000000;fill-opacity:1" />
  <circle
     cx="414.74732"
     cy="79.90411"
     r="5.54965"
     fill="#e6e6e6"
     id="circle20"
     style="fill:#000000;fill-opacity:1" />
  <circle
     cx="442.83958"
     cy="79.90411"
     r="5.54965"
     fill="#e6e6e6"
     id="circle22"
     style="fill:#000000;fill-opacity:1" />
  <circle
     cx="470.93185"
     cy="79.90411"
     r="5.54965"
     fill="#e6e6e6"
     id="circle24"
     style="fill:#000000;fill-opacity:1" />
  <circle
     cx="499.02411"
     cy="79.90411"
     r="5.54965"
     fill="#e6e6e6"
     id="circle26"
     style="fill:#000000;fill-opacity:1" />
  <circle
     cx="527.11637"
     cy="79.90411"
     r="5.54965"
     fill="#e6e6e6"
     id="circle28"
     style="fill:#000000;fill-opacity:1" />
  <circle
     cx="555.20863"
     cy="79.90411"
     r="5.54965"
     fill="#e6e6e6"
     id="circle30"
     style="fill:#000000;fill-opacity:1" />
  <circle
     cx="583.30089"
     cy="79.90411"
     r="5.54965"
     fill="#e6e6e6"
     id="circle32"
     style="fill:#000000;fill-opacity:1" />
  <circle
     cx="611.39315"
     cy="79.90411"
     r="5.54965"
     fill="#e6e6e6"
     id="circle34"
     style="fill:#000000;fill-opacity:1" />
  <circle
     cx="639.48541"
     cy="79.90411"
     r="5.54965"
     fill="#e6e6e6"
     id="circle36"
     style="fill:#000000;fill-opacity:1" />
  <circle
     cx="667.57767"
     cy="79.90411"
     r="5.54965"
     fill="#e6e6e6"
     id="circle38"
     style="fill:#000000;fill-opacity:1" />
  <circle
     cx="695.66993"
     cy="79.90411"
     r="5.54965"
     fill="#e6e6e6"
     id="circle40"
     style="fill:#000000;fill-opacity:1" />
  <circle
     cx="723.7622"
     cy="79.90411"
     r="5.54965"
     fill="#e6e6e6"
     id="circle42"
     style="fill:#000000;fill-opacity:1" />
  <circle
     cx="751.85446"
     cy="79.90411"
     r="5.54965"
     fill="#e6e6e6"
     id="circle44"
     style="fill:#000000;fill-opacity:1" />
  <circle
     cx="779.94672"
     cy="79.90411"
     r="5.54965"
     fill="#e6e6e6"
     id="circle46"
     style="fill:#000000;fill-opacity:1" />
  <circle
     cx="190.00923"
     cy="108.34899"
     r="5.54965"
     fill="#e6e6e6"
     id="circle48"
     style="fill:#000000;fill-opacity:1" />
  <circle
     cx="218.10149"
     cy="108.34899"
     r="5.54965"
     fill="#e6e6e6"
     id="circle50"
     style="fill:#000000;fill-opacity:1" />
  <circle
     cx="246.19376"
     cy="108.34899"
     r="5.54965"
     fill="#e6e6e6"
     id="circle52"
     style="fill:#000000;fill-opacity:1" />
  <circle
     cx="274.28602"
     cy="108.34899"
     r="5.54965"
     fill="#e6e6e6"
     id="circle54"
     style="fill:#000000;fill-opacity:1" />
  <circle
     cx="302.37828"
     cy="108.34899"
     r="5.54965"
     fill="#e6e6e6"
     id="circle56"
     style="fill:#000000;fill-opacity:1" />
  <circle
     cx="330.47054"
     cy="108.34899"
     r="5.54965"
     fill="#e6e6e6"
     id="circle58"
     style="fill:#000000;fill-opacity:1" />
  <circle
     cx="358.5628"
     cy="108.34899"
     r="5.54965"
     fill="#e6e6e6"
     id="circle60"
     style="fill:#000000;fill-opacity:1" />
  <circle
     cx="386.65506"
     cy="108.34899"
     r="5.54965"
     fill="#e6e6e6"
     id="circle62"
     style="fill:#000000;fill-opacity:1" />
  <circle
     cx="414.74732"
     cy="108.34899"
     r="5.54965"
     fill="#e6e6e6"
     id="circle64"
     style="fill:#000000;fill-opacity:1" />
  <circle
     cx="442.83958"
     cy="108.34899"
     r="5.54965"
     fill="#e6e6e6"
     id="circle66"
     style="fill:#000000;fill-opacity:1" />
  <circle
     cx="470.93185"
     cy="108.34899"
     r="5.54965"
     fill="#e6e6e6"
     id="circle68"
     style="fill:#000000;fill-opacity:1" />
  <circle
     cx="499.02411"
     cy="108.34899"
     r="5.54965"
     fill="#e6e6e6"
     id="circle70"
     style="fill:#000000;fill-opacity:1" />
  <circle
     cx="527.11637"
     cy="108.34899"
     r="5.54965"
     fill="#e6e6e6"
     id="circle72"
     style="fill:#000000;fill-opacity:1" />
  <circle
     cx="555.20863"
     cy="108.34899"
     r="5.54965"
     fill="#e6e6e6"
     id="circle74"
     style="fill:#000000;fill-opacity:1" />
  <circle
     cx="583.30089"
     cy="108.34899"
     r="5.54965"
     fill="#e6e6e6"
     id="circle76"
     style="fill:#000000;fill-opacity:1" />
  <circle
     cx="611.39315"
     cy="108.34899"
     r="5.54965"
     fill="#e6e6e6"
     id="circle78"
     style="fill:#000000;fill-opacity:1" />
  <circle
     cx="639.48541"
     cy="108.34899"
     r="5.54965"
     fill="#e6e6e6"
     id="circle80"
     style="fill:#000000;fill-opacity:1" />
  <circle
     cx="667.57767"
     cy="108.34899"
     r="5.54965"
     fill="#e6e6e6"
     id="circle82"
     style="fill:#000000;fill-opacity:1" />
  <circle
     cx="695.66993"
     cy="108.34899"
     r="5.54965"
     fill="#e6e6e6"
     id="circle84"
     style="fill:#000000;fill-opacity:1" />
  <circle
     cx="723.7622"
     cy="108.34899"
     r="5.54965"
     fill="#e6e6e6"
     id="circle86"
     style="fill:#000000;fill-opacity:1" />
  <circle
     cx="751.85446"
     cy="108.34899"
     r="5.54965"
     fill="#e6e6e6"
     id="circle88"
     style="fill:#000000;fill-opacity:1" />
  <circle
     cx="779.94672"
     cy="108.34899"
     r="5.54965"
     fill="#e6e6e6"
     id="circle90"
     style="fill:#000000;fill-opacity:1" />
  <circle
     cx="190.00923"
     cy="136.79387"
     r="5.54965"
     fill="#e6e6e6"
     id="circle92"
     style="fill:#000000;fill-opacity:1" />
  <circle
     cx="218.10149"
     cy="136.79387"
     r="5.54965"
     fill="#e6e6e6"
     id="circle94"
     style="fill:#000000;fill-opacity:1" />
  <circle
     cx="246.19376"
     cy="136.79387"
     r="5.54965"
     fill="#e6e6e6"
     id="circle96"
     style="fill:#000000;fill-opacity:1" />
  <circle
     cx="274.28602"
     cy="136.79387"
     r="5.54965"
     fill="#e6e6e6"
     id="circle98"
     style="fill:#000000;fill-opacity:1" />
  <circle
     cx="302.37828"
     cy="136.79387"
     r="5.54965"
     fill="#e6e6e6"
     id="circle100"
     style="fill:#000000;fill-opacity:1" />
  <circle
     cx="330.47054"
     cy="136.79387"
     r="5.54965"
     fill="#e6e6e6"
     id="circle102"
     style="fill:#000000;fill-opacity:1" />
  <circle
     cx="358.5628"
     cy="136.79387"
     r="5.54965"
     fill="#e6e6e6"
     id="circle104"
     style="fill:#000000;fill-opacity:1" />
  <circle
     cx="386.65506"
     cy="136.79387"
     r="5.54965"
     fill="#e6e6e6"
     id="circle106"
     style="fill:#000000;fill-opacity:1" />
  <circle
     cx="414.74732"
     cy="136.79387"
     r="5.54965"
     fill="#e6e6e6"
     id="circle108"
     style="fill:#000000;fill-opacity:1" />
  <circle
     cx="442.83958"
     cy="136.79387"
     r="5.54965"
     fill="#e6e6e6"
     id="circle110"
     style="fill:#000000;fill-opacity:1" />
  <circle
     cx="470.93185"
     cy="136.79387"
     r="5.54965"
     fill="#e6e6e6"
     id="circle112"
     style="fill:#000000;fill-opacity:1" />
  <circle
     cx="499.02411"
     cy="136.79387"
     r="5.54965"
     fill="#e6e6e6"
     id="circle114"
     style="fill:#000000;fill-opacity:1" />
  <circle
     cx="527.11637"
     cy="136.79387"
     r="5.54965"
     fill="#e6e6e6"
     id="circle116"
     style="fill:#000000;fill-opacity:1" />
  <circle
     cx="555.20863"
     cy="136.79387"
     r="5.54965"
     fill="#e6e6e6"
     id="circle118"
     style="fill:#000000;fill-opacity:1" />
  <circle
     cx="583.30089"
     cy="136.79387"
     r="5.54965"
     fill="#e6e6e6"
     id="circle120"
     style="fill:#000000;fill-opacity:1" />
  <circle
     cx="611.39315"
     cy="136.79387"
     r="5.54965"
     fill="#e6e6e6"
     id="circle122"
     style="fill:#000000;fill-opacity:1" />
  <circle
     cx="639.48541"
     cy="136.79387"
     r="5.54965"
     fill="#e6e6e6"
     id="circle124"
     style="fill:#000000;fill-opacity:1" />
  <circle
     cx="667.57767"
     cy="136.79387"
     r="5.54965"
     fill="#e6e6e6"
     id="circle126"
     style="fill:#000000;fill-opacity:1" />
  <circle
     cx="695.66993"
     cy="136.79387"
     r="5.54965"
     fill="#e6e6e6"
     id="circle128"
     style="fill:#000000;fill-opacity:1" />
  <circle
     cx="723.7622"
     cy="136.79387"
     r="5.54965"
     fill="#e6e6e6"
     id="circle130"
     style="fill:#000000;fill-opacity:1" />
  <circle
     cx="751.85446"
     cy="136.79387"
     r="5.54965"
     fill="#e6e6e6"
     id="circle132"
     style="fill:#000000;fill-opacity:1" />
  <circle
     cx="779.94672"
     cy="136.79387"
     r="5.54965"
     fill="#e6e6e6"
     id="circle134"
     style="fill:#000000;fill-opacity:1" />
  <circle
     cx="190.00923"
     cy="165.23874"
     r="5.54965"
     fill="#e6e6e6"
     id="circle136"
     style="fill:#000000;fill-opacity:1" />
  <circle
     cx="218.10149"
     cy="165.23874"
     r="5.54965"
     fill="#e6e6e6"
     id="circle138"
     style="fill:#000000;fill-opacity:1" />
  <circle
     cx="246.19376"
     cy="165.23874"
     r="5.54965"
     fill="#e6e6e6"
     id="circle140"
     style="fill:#000000;fill-opacity:1" />
  <circle
     cx="274.28602"
     cy="165.23874"
     r="5.54965"
     fill="#e6e6e6"
     id="circle142"
     style="fill:#000000;fill-opacity:1" />
  <circle
     cx="302.37828"
     cy="165.23874"
     r="5.54965"
     fill="#e6e6e6"
     id="circle144"
     style="fill:#000000;fill-opacity:1" />
  <circle
     cx="330.47054"
     cy="165.23874"
     r="5.54965"
     fill="#e6e6e6"
     id="circle146"
     style="fill:#000000;fill-opacity:1" />
  <circle
     cx="358.5628"
     cy="165.23874"
     r="5.54965"
     fill="#e6e6e6"
     id="circle148"
     style="fill:#000000;fill-opacity:1" />
  <circle
     cx="386.65506"
     cy="165.23874"
     r="5.54965"
     fill="#e6e6e6"
     id="circle150"
     style="fill:#000000;fill-opacity:1" />
  <circle
     cx="414.74732"
     cy="165.23874"
     r="5.54965"
     fill="#e6e6e6"
     id="circle152"
     style="fill:#000000;fill-opacity:1" />
  <circle
     cx="442.83958"
     cy="165.23874"
     r="5.54965"
     fill="#e6e6e6"
     id="circle154"
     style="fill:#000000;fill-opacity:1" />
  <circle
     cx="470.93185"
     cy="165.23874"
     r="5.54965"
     fill="#e6e6e6"
     id="circle156"
     style="fill:#000000;fill-opacity:1" />
  <circle
     cx="499.02411"
     cy="165.23874"
     r="5.54965"
     fill="#e6e6e6"
     id="circle158"
     style="fill:#000000;fill-opacity:1" />
  <circle
     cx="527.11637"
     cy="165.23874"
     r="5.54965"
     fill="#e6e6e6"
     id="circle160"
     style="fill:#000000;fill-opacity:1" />
  <circle
     cx="555.20863"
     cy="165.23874"
     r="5.54965"
     fill="#e6e6e6"
     id="circle162"
     style="fill:#000000;fill-opacity:1" />
  <circle
     cx="583.30089"
     cy="165.23874"
     r="5.54965"
     fill="#e6e6e6"
     id="circle164"
     style="fill:#000000;fill-opacity:1" />
  <circle
     cx="611.39315"
     cy="165.23874"
     r="5.54965"
     fill="#e6e6e6"
     id="circle166"
     style="fill:#000000;fill-opacity:1" />
  <circle
     cx="639.48541"
     cy="165.23874"
     r="5.54965"
     fill="#e6e6e6"
     id="circle168"
     style="fill:#000000;fill-opacity:1" />
  <circle
     cx="667.57767"
     cy="165.23874"
     r="5.54965"
     fill="#e6e6e6"
     id="circle170"
     style="fill:#000000;fill-opacity:1" />
  <circle
     cx="695.66993"
     cy="165.23874"
     r="5.54965"
     fill="#e6e6e6"
     id="circle172"
     style="fill:#000000;fill-opacity:1" />
  <circle
     cx="723.7622"
     cy="165.23874"
     r="5.54965"
     fill="#e6e6e6"
     id="circle174"
     style="fill:#000000;fill-opacity:1" />
  <circle
     cx="751.85446"
     cy="165.23874"
     r="5.54965"
     fill="#e6e6e6"
     id="circle176"
     style="fill:#000000;fill-opacity:1" />
  <circle
     cx="779.94672"
     cy="165.23874"
     r="5.54965"
     fill="#e6e6e6"
     id="circle178"
     style="fill:#000000;fill-opacity:1" />
  <circle
     cx="190.00923"
     cy="193.68362"
     r="5.54965"
     fill="#e6e6e6"
     id="circle180"
     style="fill:#000000;fill-opacity:1" />
  <circle
     cx="218.10149"
     cy="193.68362"
     r="5.54965"
     fill="#e6e6e6"
     id="circle182"
     style="fill:#000000;fill-opacity:1" />
  <circle
     cx="246.19376"
     cy="193.68362"
     r="5.54965"
     fill="#e6e6e6"
     id="circle184"
     style="fill:#000000;fill-opacity:1" />
  <circle
     cx="274.28602"
     cy="193.68362"
     r="5.54965"
     fill="#e6e6e6"
     id="circle186"
     style="fill:#000000;fill-opacity:1" />
  <circle
     cx="302.37828"
     cy="193.68362"
     r="5.54965"
     fill="#e6e6e6"
     id="circle188"
     style="fill:#000000;fill-opacity:1" />
  <circle
     cx="330.47054"
     cy="193.68362"
     r="5.54965"
     fill="#e6e6e6"
     id="circle190"
     style="fill:#000000;fill-opacity:1" />
  <circle
     cx="358.5628"
     cy="193.68362"
     r="5.54965"
     fill="#e6e6e6"
     id="circle192"
     style="fill:#000000;fill-opacity:1" />
  <circle
     cx="386.65506"
     cy="193.68362"
     r="5.54965"
     fill="#e6e6e6"
     id="circle194"
     style="fill:#000000;fill-opacity:1" />
  <circle
     cx="414.74732"
     cy="193.68362"
     r="5.54965"
     fill="#e6e6e6"
     id="circle196"
     style="fill:#000000;fill-opacity:1" />
  <circle
     cx="442.83958"
     cy="193.68362"
     r="5.54965"
     fill="#e6e6e6"
     id="circle198"
     style="fill:#000000;fill-opacity:1" />
  <circle
     cx="470.93185"
     cy="193.68362"
     r="5.54965"
     fill="#e6e6e6"
     id="circle200"
     style="fill:#000000;fill-opacity:1" />
  <circle
     cx="499.02411"
     cy="193.68362"
     r="5.54965"
     fill="#e6e6e6"
     id="circle202"
     style="fill:#000000;fill-opacity:1" />
  <circle
     cx="527.11637"
     cy="193.68362"
     r="5.54965"
     fill="#e6e6e6"
     id="circle204"
     style="fill:#000000;fill-opacity:1" />
  <circle
     cx="555.20863"
     cy="193.68362"
     r="5.54965"
     fill="#e6e6e6"
     id="circle206"
     style="fill:#000000;fill-opacity:1" />
  <circle
     cx="583.30089"
     cy="193.68362"
     r="5.54965"
     fill="#e6e6e6"
     id="circle208"
     style="fill:#000000;fill-opacity:1" />
  <circle
     cx="611.39315"
     cy="193.68362"
     r="5.54965"
     fill="#e6e6e6"
     id="circle210"
     style="fill:#000000;fill-opacity:1" />
  <circle
     cx="639.48541"
     cy="193.68362"
     r="5.54965"
     fill="#e6e6e6"
     id="circle212"
     style="fill:#000000;fill-opacity:1" />
  <circle
     cx="667.57767"
     cy="193.68362"
     r="5.54965"
     fill="#e6e6e6"
     id="circle214"
     style="fill:#000000;fill-opacity:1" />
  <circle
     cx="695.66993"
     cy="193.68362"
     r="5.54965"
     fill="#e6e6e6"
     id="circle216"
     style="fill:#000000;fill-opacity:1" />
  <circle
     cx="723.7622"
     cy="193.68362"
     r="5.54965"
     fill="#e6e6e6"
     id="circle218"
     style="fill:#000000;fill-opacity:1" />
  <circle
     cx="751.85446"
     cy="193.68362"
     r="5.54965"
     fill="#e6e6e6"
     id="circle220"
     style="fill:#000000;fill-opacity:1" />
  <circle
     cx="779.94672"
     cy="193.68362"
     r="5.54965"
     fill="#e6e6e6"
     id="circle222"
     style="fill:#000000;fill-opacity:1" />
  <circle
     cx="190.00923"
     cy="222.1285"
     r="5.54965"
     fill="#e6e6e6"
     id="circle224"
     style="fill:#000000;fill-opacity:1" />
  <circle
     cx="218.10149"
     cy="222.1285"
     r="5.54965"
     fill="#e6e6e6"
     id="circle226"
     style="fill:#000000;fill-opacity:1" />
  <circle
     cx="246.19376"
     cy="222.1285"
     r="5.54965"
     fill="#e6e6e6"
     id="circle228"
     style="fill:#000000;fill-opacity:1" />
  <circle
     cx="274.28602"
     cy="222.1285"
     r="5.54965"
     fill="#e6e6e6"
     id="circle230"
     style="fill:#000000;fill-opacity:1" />
  <circle
     cx="302.37828"
     cy="222.1285"
     r="5.54965"
     fill="#e6e6e6"
     id="circle232"
     style="fill:#000000;fill-opacity:1" />
  <circle
     cx="330.47054"
     cy="222.1285"
     r="5.54965"
     fill="#e6e6e6"
     id="circle234"
     style="fill:#000000;fill-opacity:1" />
  <circle
     cx="358.5628"
     cy="222.1285"
     r="5.54965"
     fill="#e6e6e6"
     id="circle236"
     style="fill:#000000;fill-opacity:1" />
  <circle
     cx="386.65506"
     cy="222.1285"
     r="5.54965"
     fill="#e6e6e6"
     id="circle238"
     style="fill:#000000;fill-opacity:1" />
  <circle
     cx="414.74732"
     cy="222.1285"
     r="5.54965"
     fill="#e6e6e6"
     id="circle240"
     style="fill:#000000;fill-opacity:1" />
  <circle
     cx="442.83958"
     cy="222.1285"
     r="5.54965"
     fill="#e6e6e6"
     id="circle242"
     style="fill:#000000;fill-opacity:1" />
  <circle
     cx="470.93185"
     cy="222.1285"
     r="5.54965"
     fill="#e6e6e6"
     id="circle244"
     style="fill:#000000;fill-opacity:1" />
  <circle
     cx="499.02411"
     cy="222.1285"
     r="5.54965"
     fill="#e6e6e6"
     id="circle246"
     style="fill:#000000;fill-opacity:1" />
  <circle
     cx="527.11637"
     cy="222.1285"
     r="5.54965"
     fill="#e6e6e6"
     id="circle248"
     style="fill:#000000;fill-opacity:1" />
  <circle
     cx="555.20863"
     cy="222.1285"
     r="5.54965"
     fill="#e6e6e6"
     id="circle250"
     style="fill:#000000;fill-opacity:1" />
  <circle
     cx="583.30089"
     cy="222.1285"
     r="5.54965"
     fill="#e6e6e6"
     id="circle252"
     style="fill:#000000;fill-opacity:1" />
  <circle
     cx="611.39315"
     cy="222.1285"
     r="5.54965"
     fill="#e6e6e6"
     id="circle254"
     style="fill:#000000;fill-opacity:1" />
  <circle
     cx="639.48541"
     cy="222.1285"
     r="5.54965"
     fill="#e6e6e6"
     id="circle256"
     style="fill:#000000;fill-opacity:1" />
  <circle
     cx="667.57767"
     cy="222.1285"
     r="5.54965"
     fill="#e6e6e6"
     id="circle258"
     style="fill:#000000;fill-opacity:1" />
  <circle
     cx="695.66993"
     cy="222.1285"
     r="5.54965"
     fill="#e6e6e6"
     id="circle260"
     style="fill:#000000;fill-opacity:1" />
  <circle
     cx="723.7622"
     cy="222.1285"
     r="5.54965"
     fill="#e6e6e6"
     id="circle262"
     style="fill:#000000;fill-opacity:1" />
  <circle
     cx="751.85446"
     cy="222.1285"
     r="5.54965"
     fill="#e6e6e6"
     id="circle264"
     style="fill:#000000;fill-opacity:1" />
  <circle
     cx="779.94672"
     cy="222.1285"
     r="5.54965"
     fill="#e6e6e6"
     id="circle266"
     style="fill:#000000;fill-opacity:1" />
  <circle
     cx="190.00923"
     cy="250.57337"
     r="5.54965"
     fill="#e6e6e6"
     id="circle268"
     style="fill:#000000;fill-opacity:1" />
  <circle
     cx="218.10149"
     cy="250.57337"
     r="5.54965"
     fill="#e6e6e6"
     id="circle270"
     style="fill:#000000;fill-opacity:1" />
  <circle
     cx="246.19376"
     cy="250.57337"
     r="5.54965"
     fill="#e6e6e6"
     id="circle272"
     style="fill:#000000;fill-opacity:1" />
  <circle
     cx="274.28602"
     cy="250.57337"
     r="5.54965"
     fill="#e6e6e6"
     id="circle274"
     style="fill:#000000;fill-opacity:1" />
  <circle
     cx="302.37828"
     cy="250.57337"
     r="5.54965"
     fill="#e6e6e6"
     id="circle276"
     style="fill:#000000;fill-opacity:1" />
  <circle
     cx="330.47054"
     cy="250.57337"
     r="5.54965"
     fill="#e6e6e6"
     id="circle278"
     style="fill:#000000;fill-opacity:1" />
  <circle
     cx="358.5628"
     cy="250.57337"
     r="5.54965"
     fill="#e6e6e6"
     id="circle280"
     style="fill:#000000;fill-opacity:1" />
  <circle
     cx="386.65506"
     cy="250.57337"
     r="5.54965"
     fill="#e6e6e6"
     id="circle282"
     style="fill:#000000;fill-opacity:1" />
  <circle
     cx="414.74732"
     cy="250.57337"
     r="5.54965"
     fill="#e6e6e6"
     id="circle284"
     style="fill:#000000;fill-opacity:1" />
  <circle
     cx="442.83958"
     cy="250.57337"
     r="5.54965"
     fill="#e6e6e6"
     id="circle286"
     style="fill:#000000;fill-opacity:1" />
  <circle
     cx="470.93185"
     cy="250.57337"
     r="5.54965"
     fill="#e6e6e6"
     id="circle288"
     style="fill:#000000;fill-opacity:1" />
  <circle
     cx="499.02411"
     cy="250.57337"
     r="5.54965"
     fill="#e6e6e6"
     id="circle290"
     style="fill:#000000;fill-opacity:1" />
  <circle
     cx="527.11637"
     cy="250.57337"
     r="5.54965"
     fill="#e6e6e6"
     id="circle292"
     style="fill:#000000;fill-opacity:1" />
  <circle
     cx="555.20863"
     cy="250.57337"
     r="5.54965"
     fill="#e6e6e6"
     id="circle294"
     style="fill:#000000;fill-opacity:1" />
  <circle
     cx="583.30089"
     cy="250.57337"
     r="5.54965"
     fill="#e6e6e6"
     id="circle296"
     style="fill:#000000;fill-opacity:1" />
  <circle
     cx="611.39315"
     cy="250.57337"
     r="5.54965"
     fill="#e6e6e6"
     id="circle298"
     style="fill:#000000;fill-opacity:1" />
  <circle
     cx="639.48541"
     cy="250.57337"
     r="5.54965"
     fill="#e6e6e6"
     id="circle300"
     style="fill:#000000;fill-opacity:1" />
  <circle
     cx="667.57767"
     cy="250.57337"
     r="5.54965"
     fill="#e6e6e6"
     id="circle302"
     style="fill:#000000;fill-opacity:1" />
  <circle
     cx="695.66993"
     cy="250.57337"
     r="5.54965"
     fill="#e6e6e6"
     id="circle304"
     style="fill:#000000;fill-opacity:1" />
  <circle
     cx="723.7622"
     cy="250.57337"
     r="5.54965"
     fill="#e6e6e6"
     id="circle306"
     style="fill:#000000;fill-opacity:1" />
  <circle
     cx="751.85446"
     cy="250.57337"
     r="5.54965"
     fill="#e6e6e6"
     id="circle308"
     style="fill:#000000;fill-opacity:1" />
  <circle
     cx="779.94672"
     cy="250.57337"
     r="5.54965"
     fill="#e6e6e6"
     id="circle310"
     style="fill:#000000;fill-opacity:1" />
  <circle
     cx="190.00923"
     cy="279.01825"
     r="5.54965"
     fill="#e6e6e6"
     id="circle312"
     style="fill:#000000;fill-opacity:1" />
  <circle
     cx="218.10149"
     cy="279.01825"
     r="5.54965"
     fill="#e6e6e6"
     id="circle314"
     style="fill:#000000;fill-opacity:1" />
  <circle
     cx="246.19376"
     cy="279.01825"
     r="5.54965"
     fill="#e6e6e6"
     id="circle316"
     style="fill:#000000;fill-opacity:1" />
  <circle
     cx="274.28602"
     cy="279.01825"
     r="5.54965"
     fill="#e6e6e6"
     id="circle318"
     style="fill:#000000;fill-opacity:1" />
  <circle
     cx="302.37828"
     cy="279.01825"
     r="5.54965"
     fill="#e6e6e6"
     id="circle320"
     style="fill:#000000;fill-opacity:1" />
  <circle
     cx="330.47054"
     cy="279.01825"
     r="5.54965"
     fill="#e6e6e6"
     id="circle322"
     style="fill:#000000;fill-opacity:1" />
  <circle
     cx="358.5628"
     cy="279.01825"
     r="5.54965"
     fill="#e6e6e6"
     id="circle324"
     style="fill:#000000;fill-opacity:1" />
  <circle
     cx="386.65506"
     cy="279.01825"
     r="5.54965"
     fill="#e6e6e6"
     id="circle326"
     style="fill:#000000;fill-opacity:1" />
  <circle
     cx="414.74732"
     cy="279.01825"
     r="5.54965"
     fill="#e6e6e6"
     id="circle328"
     style="fill:#000000;fill-opacity:1" />
  <circle
     cx="442.83958"
     cy="279.01825"
     r="5.54965"
     fill="#e6e6e6"
     id="circle330"
     style="fill:#000000;fill-opacity:1" />
  <circle
     cx="470.93185"
     cy="279.01825"
     r="5.54965"
     fill="#e6e6e6"
     id="circle332"
     style="fill:#000000;fill-opacity:1" />
  <circle
     cx="499.02411"
     cy="279.01825"
     r="5.54965"
     fill="#e6e6e6"
     id="circle334"
     style="fill:#000000;fill-opacity:1" />
  <circle
     cx="527.11637"
     cy="279.01825"
     r="5.54965"
     fill="#e6e6e6"
     id="circle336"
     style="fill:#000000;fill-opacity:1" />
  <circle
     cx="555.20863"
     cy="279.01825"
     r="5.54965"
     fill="#e6e6e6"
     id="circle338"
     style="fill:#000000;fill-opacity:1" />
  <circle
     cx="583.30089"
     cy="279.01825"
     r="5.54965"
     fill="#e6e6e6"
     id="circle340"
     style="fill:#000000;fill-opacity:1" />
  <circle
     cx="611.39315"
     cy="279.01825"
     r="5.54965"
     fill="#e6e6e6"
     id="circle342"
     style="fill:#000000;fill-opacity:1" />
  <circle
     cx="639.48541"
     cy="279.01825"
     r="5.54965"
     fill="#e6e6e6"
     id="circle344"
     style="fill:#000000;fill-opacity:1" />
  <circle
     cx="667.57767"
     cy="279.01825"
     r="5.54965"
     fill="#e6e6e6"
     id="circle346"
     style="fill:#000000;fill-opacity:1" />
  <circle
     cx="695.66993"
     cy="279.01825"
     r="5.54965"
     fill="#e6e6e6"
     id="circle348"
     style="fill:#000000;fill-opacity:1" />
  <circle
     cx="723.7622"
     cy="279.01825"
     r="5.54965"
     fill="#e6e6e6"
     id="circle350"
     style="fill:#000000;fill-opacity:1" />
  <circle
     cx="751.85446"
     cy="279.01825"
     r="5.54965"
     fill="#e6e6e6"
     id="circle352"
     style="fill:#000000;fill-opacity:1" />
  <circle
     cx="779.94672"
     cy="279.01825"
     r="5.54965"
     fill="#e6e6e6"
     id="circle354"
     style="fill:#000000;fill-opacity:1" />
  <circle
     cx="190.00923"
     cy="307.46313"
     r="5.54965"
     fill="#e6e6e6"
     id="circle356"
     style="fill:#000000;fill-opacity:1" />
  <circle
     cx="218.10149"
     cy="307.46313"
     r="5.54965"
     fill="#e6e6e6"
     id="circle358"
     style="fill:#000000;fill-opacity:1" />
  <circle
     cx="246.19376"
     cy="307.46313"
     r="5.54965"
     fill="#e6e6e6"
     id="circle360"
     style="fill:#000000;fill-opacity:1" />
  <circle
     cx="274.28602"
     cy="307.46313"
     r="5.54965"
     fill="#e6e6e6"
     id="circle362"
     style="fill:#000000;fill-opacity:1" />
  <circle
     cx="302.37828"
     cy="307.46313"
     r="5.54965"
     fill="#e6e6e6"
     id="circle364"
     style="fill:#000000;fill-opacity:1" />
  <circle
     cx="330.47054"
     cy="307.46313"
     r="5.54965"
     fill="#e6e6e6"
     id="circle366"
     style="fill:#000000;fill-opacity:1" />
  <circle
     cx="358.5628"
     cy="307.46313"
     r="5.54965"
     fill="#e6e6e6"
     id="circle368"
     style="fill:#000000;fill-opacity:1" />
  <circle
     cx="386.65506"
     cy="307.46313"
     r="5.54965"
     fill="#e6e6e6"
     id="circle370"
     style="fill:#000000;fill-opacity:1" />
  <circle
     cx="414.74732"
     cy="307.46313"
     r="5.54965"
     fill="#e6e6e6"
     id="circle372"
     style="fill:#000000;fill-opacity:1" />
  <circle
     cx="442.83958"
     cy="307.46313"
     r="5.54965"
     fill="#e6e6e6"
     id="circle374"
     style="fill:#000000;fill-opacity:1" />
  <circle
     cx="470.93185"
     cy="307.46313"
     r="5.54965"
     fill="#e6e6e6"
     id="circle376"
     style="fill:#000000;fill-opacity:1" />
  <circle
     cx="499.02411"
     cy="307.46313"
     r="5.54965"
     fill="#e6e6e6"
     id="circle378"
     style="fill:#000000;fill-opacity:1" />
  <circle
     cx="527.11637"
     cy="307.46313"
     r="5.54965"
     fill="#e6e6e6"
     id="circle380"
     style="fill:#000000;fill-opacity:1" />
  <circle
     cx="555.20863"
     cy="307.46313"
     r="5.54965"
     fill="#e6e6e6"
     id="circle382"
     style="fill:#000000;fill-opacity:1" />
  <circle
     cx="583.30089"
     cy="307.46313"
     r="5.54965"
     fill="#e6e6e6"
     id="circle384"
     style="fill:#000000;fill-opacity:1" />
  <circle
     cx="611.39315"
     cy="307.46313"
     r="5.54965"
     fill="#e6e6e6"
     id="circle386"
     style="fill:#000000;fill-opacity:1" />
  <circle
     cx="639.48541"
     cy="307.46313"
     r="5.54965"
     fill="#e6e6e6"
     id="circle388"
     style="fill:#000000;fill-opacity:1" />
  <circle
     cx="667.57767"
     cy="307.46313"
     r="5.54965"
     fill="#e6e6e6"
     id="circle390"
     style="fill:#000000;fill-opacity:1" />
  <circle
     cx="695.66993"
     cy="307.46313"
     r="5.54965"
     fill="#e6e6e6"
     id="circle392"
     style="fill:#000000;fill-opacity:1" />
  <circle
     cx="723.7622"
     cy="307.46313"
     r="5.54965"
     fill="#e6e6e6"
     id="circle394"
     style="fill:#000000;fill-opacity:1" />
  <circle
     cx="751.85446"
     cy="307.46313"
     r="5.54965"
     fill="#e6e6e6"
     id="circle396"
     style="fill:#000000;fill-opacity:1" />
  <circle
     cx="779.94672"
     cy="307.46313"
     r="5.54965"
     fill="#e6e6e6"
     id="circle398"
     style="fill:#000000;fill-opacity:1" />
  <circle
     cx="190.00923"
     cy="335.908"
     r="5.54965"
     fill="#e6e6e6"
     id="circle400"
     style="fill:#000000;fill-opacity:1" />
  <circle
     cx="218.10149"
     cy="335.908"
     r="5.54965"
     fill="#e6e6e6"
     id="circle402"
     style="fill:#000000;fill-opacity:1" />
  <circle
     cx="246.19376"
     cy="335.908"
     r="5.54965"
     fill="#e6e6e6"
     id="circle404"
     style="fill:#000000;fill-opacity:1" />
  <circle
     cx="274.28602"
     cy="335.908"
     r="5.54965"
     fill="#e6e6e6"
     id="circle406"
     style="fill:#000000;fill-opacity:1" />
  <circle
     cx="302.37828"
     cy="335.908"
     r="5.54965"
     fill="#e6e6e6"
     id="circle408"
     style="fill:#000000;fill-opacity:1" />
  <circle
     cx="330.47054"
     cy="335.908"
     r="5.54965"
     fill="#e6e6e6"
     id="circle410"
     style="fill:#000000;fill-opacity:1" />
  <circle
     cx="358.5628"
     cy="335.908"
     r="5.54965"
     fill="#e6e6e6"
     id="circle412"
     style="fill:#000000;fill-opacity:1" />
  <circle
     cx="386.65506"
     cy="335.908"
     r="5.54965"
     fill="#e6e6e6"
     id="circle414"
     style="fill:#000000;fill-opacity:1" />
  <circle
     cx="414.74732"
     cy="335.908"
     r="5.54965"
     fill="#e6e6e6"
     id="circle416"
     style="fill:#000000;fill-opacity:1" />
  <circle
     cx="442.83958"
     cy="335.908"
     r="5.54965"
     fill="#e6e6e6"
     id="circle418"
     style="fill:#000000;fill-opacity:1" />
  <circle
     cx="470.93185"
     cy="335.908"
     r="5.54965"
     fill="#e6e6e6"
     id="circle420"
     style="fill:#000000;fill-opacity:1" />
  <circle
     cx="499.02411"
     cy="335.908"
     r="5.54965"
     fill="#e6e6e6"
     id="circle422"
     style="fill:#000000;fill-opacity:1" />
  <circle
     cx="527.11637"
     cy="335.908"
     r="5.54965"
     fill="#e6e6e6"
     id="circle424"
     style="fill:#000000;fill-opacity:1" />
  <circle
     cx="555.20863"
     cy="335.908"
     r="5.54965"
     fill="#e6e6e6"
     id="circle426"
     style="fill:#000000;fill-opacity:1" />
  <circle
     cx="583.30089"
     cy="335.908"
     r="5.54965"
     fill="#e6e6e6"
     id="circle428"
     style="fill:#000000;fill-opacity:1" />
  <circle
     cx="611.39315"
     cy="335.908"
     r="5.54965"
     fill="#e6e6e6"
     id="circle430"
     style="fill:#000000;fill-opacity:1" />
  <circle
     cx="639.48541"
     cy="335.908"
     r="5.54965"
     fill="#e6e6e6"
     id="circle432"
     style="fill:#000000;fill-opacity:1" />
  <circle
     cx="667.57767"
     cy="335.908"
     r="5.54965"
     fill="#e6e6e6"
     id="circle434"
     style="fill:#000000;fill-opacity:1" />
  <circle
     cx="695.66993"
     cy="335.908"
     r="5.54965"
     fill="#e6e6e6"
     id="circle436"
     style="fill:#000000;fill-opacity:1" />
  <circle
     cx="723.7622"
     cy="335.908"
     r="5.54965"
     fill="#e6e6e6"
     id="circle438"
     style="fill:#000000;fill-opacity:1" />
  <circle
     cx="751.85446"
     cy="335.908"
     r="5.54965"
     fill="#e6e6e6"
     id="circle440"
     style="fill:#000000;fill-opacity:1" />
  <circle
     cx="779.94672"
     cy="335.908"
     r="5.54965"
     fill="#e6e6e6"
     id="circle442"
     style="fill:#000000;fill-opacity:1" />
  <rect
     y="341.12316"
     width="888"
     height="2.24072"
     id="rect444" />
  <circle
     cx="857.37804"
     cy="271.93466"
     r="28.89362"
     fill="#00bfa6"
     id="circle446" />
  <circle
     cx="869.39158"
     cy="309.4043"
     r="3.67737"
     id="circle448" />
  <path
     d="M483.52846,398.70427H598.7473V407.862H494.09019v68.92413h98.41609v9.15775H494.09019v75.672H599.9475v9.15774h-116.419Zm125.54053,0h12.242l54.24887,75.67195,55.44907-75.67195,75.41978-96.12077L682.521,482.329l63.85044,88.44458H733.64936l-58.0895-80.4918-58.32953,80.4918H604.74827L669.0788,482.329ZM750.93216,407.862v-9.15775H882.23365V407.862h-60.4899V570.77359H811.182V407.862Zm-411.54723-9.15775h13.20216L534.63714,671.12478,459.40456,570.77359,350.42674,411.71792l-.48008,159.05567H339.38493ZM881.16952,558.85222a3.833,3.833,0,1,1,3.77622-3.83256A3.73261,3.73261,0,0,1,881.16952,558.85222Zm10.37817-10.083h5.65146c.07708,3.06091,2.312,5.11868,5.60011,5.11868,3.67347,0,5.75421-2.2121,5.75421-6.35335V521.29808h5.75425v26.26219c0,7.45939-4.31569,11.755-11.45708,11.755C896.14594,559.31523,891.54769,555.14826,891.54769,548.76921Zm30.28676-.33439h5.70284c.4881,3.52391,3.93035,5.76173,8.88824,5.76173,4.624,0,8.01483-2.39215,8.01483-5.68457,0-2.82943-2.15783-4.52707-7.06434-5.68456l-4.77809-1.15749c-6.7047-1.56905-9.76161-4.81-9.76161-10.26309,0-6.61056,5.39458-11.009,13.48645-11.009,7.52674,0,13.0241,4.39847,13.358,10.64892h-5.60008c-.53948-3.421-3.51933-5.556-7.835-5.556-4.54688,0-7.57811,2.18636-7.57811,5.53023,0,2.64936,1.95232,4.167,6.78175,5.29873l4.08448,1.00316c7.60381,1.77482,10.7378,4.86146,10.7378,10.44315,0,7.09928-5.49732,11.54918-14.28281,11.54918C927.7685,559.31523,922.24547,555.07109,921.83445,548.43482Z"
     id="path450"
     transform="translate(-156 -228.87522)"
     style="stroke:none;stroke-opacity:1;fill:#e6e6e6;fill-opacity:1" />
  <circle
     cx="119.864"
     cy="63.38029"
     r="10.7783"
     fill="#00bfa6"
     id="circle452" />
  <path
     d="M278.86687,281.7739a10.77979,10.77979,0,0,1,9.48819,15.89357A10.77573,10.77573,0,1,0,270.452,285.827,10.7517,10.7517,0,0,1,278.86687,281.7739Z"
     transform="translate(-156 -228.87522)"
     fill="#00bfa6"
     id="path454" />
  <circle
     cx="99.72319"
     cy="31.6962"
     r="31.66125"
     fill="#00bfa6"
     id="circle456" />
  <path
     d="M230.87426,240.92712a31.65557,31.65557,0,0,1,43.87848-3.31975c-.25891-.24611-.51507-.49421-.78409-.73337A31.66126,31.66126,0,0,0,231.897,284.19961c.269.23916.54542.46449.82017.69278A31.65557,31.65557,0,0,1,230.87426,240.92712Z"
     transform="translate(-156 -228.87522)"
     fill="#00bfa6"
     id="path458" />
  <path
     d="M286.254,341.28137l4.87038,27.59877,5.68209,54.38581s1.62346,21.91667-5.68209,22.7284-5.6821-24.35186-5.6821-24.35186L277.325,375.374l-3.24691-28.41049Z"
     transform="translate(-156 -228.87522)"
     fill="#fbbebe"
     id="path460" />
  <circle
     cx="100.22002"
     cy="38.53885"
     r="19.48148"
     fill="#fbbebe"
     id="circle462" />
  <polygon
     points="84.797 46.656 81.55 65.326 102.655 70.196 102.655 52.338 84.797 46.656"
     fill="#fbbebe"
     id="polygon464" />
  <polygon
     points="34.47 319.397 32.035 335.631 41.776 336.443 47.458 322.644 34.47 319.397"
     fill="#fbbebe"
     id="polygon466" />
  <polygon
     points="109.961 321.832 112.396 334.82 122.948 334.82 122.948 322.644 109.961 321.832"
     fill="#fbbebe"
     id="polygon468" />
  <path
     d="M273.26632,368.88014l-53.57409,8.11728-3.24691,38.15124-6.49383,55.19754-23.54013,80.36113,23.54013,2.43518,42.20989-107.95989,10.55247,108.77162H287.0657l1.62346-111.20681s.81173-61.69137-12.17593-65.75Z"
     transform="translate(-156 -228.87522)"
     id="path470"
     style="fill:#e6e6e6;fill-opacity:1" />
  <path
     d="M200.21075,562.88326l-13.79939-2.43519-5.6821,27.59877s-10.55247,37.33951,3.24692,34.0926,11.3642-34.0926,11.3642-34.0926Z"
     transform="translate(-156 -228.87522)"
     id="path472"
     style="fill:#e6e6e6;fill-opacity:1" />
  <path
     d="M265.96076,562.88326l13.79939-2.43519,5.6821,27.59877s10.55247,37.33951-3.24692,34.0926-11.3642-34.0926-11.3642-34.0926Z"
     transform="translate(-156 -228.87522)"
     id="path474"
     style="fill:#e6e6e6;fill-opacity:1" />
  <path
     d="M198.58729,329.10544s-6.49383,34.0926-3.24691,42.20988,21.91667,36.52779,21.91667,36.52779l5.6821-12.17593-16.23457-31.65741,5.6821-32.46915Z"
     transform="translate(-156 -228.87522)"
     fill="#fbbebe"
     id="path476" />
  <path
     d="M262.71385,305.56531l-1.62346-12.17593s-20.29321-3.24691-23.54013-8.929l-5.6821,9.74074-18.66975,4.05864s-10.55247,0-11.3642,8.11729-5.6821,24.35186-5.6821,24.35186l14.61111,4.87037,11.3642,42.20988,48.70371-7.30556L268.396,348.58692l2.43518-5.6821,2.43519,6.49383,15.42284-3.24691s.81173-29.22223-14.61111-34.0926Z"
     transform="translate(-156 -228.87522)"
     id="path478"
     style="fill:#00bfa6;fill-opacity:1" />
  <polygon
     points="82.014 17.207 82.014 37.599 86.737 37.599 92.747 31.16 91.942 37.599 112.817 37.599 111.529 31.16 114.105 37.599 117.432 37.599 117.432 17.207 82.014 17.207"
     fill="#00bfa6"
     id="polygon480" />
  <polygon
     points="858.878 343.354 855.878 343.354 857.378 272.354 858.878 343.354"
     id="polygon482" />
  <polygon
     points="858 334.354 856.538 333.23 870.865 306.829 858 334.354"
     id="polygon484" />
  <metadata
     id="metadata15675">
    <rdf:RDF>
      <cc:Work
         rdf:about="">
        <dc:title>next_js</dc:title>
      </cc:Work>
    </rdf:RDF>
  </metadata>
</svg>
